<svg width="12" height="9" viewBox="0 0 12 9" fill="none" xmlns="http://www.w3.org/2000/svg">
<path d="M0.914642 6.45547C0.914642 5.46772 1.71537 4.66699 2.70312 4.66699C3.69088 4.66699 4.49161 5.46772 4.49161 6.45547C4.49161 7.44323 3.69088 8.24396 2.70312 8.24396C1.71537 8.24396 0.914642 7.44323 0.914642 6.45547ZM2.70683 6.12015L11.2598 6.21474L11.2524 6.88538L2.69942 6.79079L2.70683 6.12015Z" fill="black"/>
<path d="M8.29388 2.52598C8.29388 1.53823 9.09461 0.737501 10.0824 0.737501C11.0701 0.737501 11.8708 1.53823 11.8708 2.52598C11.8708 3.51374 11.0701 4.31447 10.0824 4.31447C9.09461 4.31447 8.29388 3.51374 8.29388 2.52598ZM1.53313 2.09608L10.0861 2.19066L10.0787 2.8613L1.52571 2.76672L1.53313 2.09608Z" fill="black"/>
</svg>
