<svg width="77" height="34" viewBox="0 0 77 34" fill="none" xmlns="http://www.w3.org/2000/svg">
<rect x="1" y="1" width="75.2941" height="32" rx="7.78323" stroke="#222222" stroke-opacity="0.2" stroke-width="0.59871"/>
<path d="M39.1898 13.6981V14.6463H36.1819V16.7365H38.527V17.6847H36.1819V20.7843H35.0196V13.6981H39.1898ZM40.8584 14.422C40.6476 14.422 40.4709 14.3506 40.3282 14.2079C40.1854 14.0651 40.114 13.8884 40.114 13.6777C40.114 13.4669 40.1854 13.2902 40.3282 13.1475C40.4709 13.0047 40.6476 12.9334 40.8584 12.9334C41.0623 12.9334 41.2356 13.0047 41.3784 13.1475C41.5211 13.2902 41.5925 13.4669 41.5925 13.6777C41.5925 13.8884 41.5211 14.0651 41.3784 14.2079C41.2356 14.3506 41.0623 14.422 40.8584 14.422ZM41.4293 15.1663V20.7843H40.267V15.1663H41.4293ZM44.1178 13.2392V20.7843H42.9554V13.2392H44.1178ZM46.9999 16.1145V19.2243C46.9999 19.4351 47.0475 19.588 47.1426 19.6832C47.2446 19.7715 47.4145 19.8157 47.6525 19.8157H48.3662V20.7843H47.4485C46.9251 20.7843 46.5241 20.662 46.2454 20.4173C45.9667 20.1726 45.8274 19.7749 45.8274 19.2243V16.1145H45.1646V15.1663H45.8274V13.7694H46.9999V15.1663H48.3662V16.1145H46.9999ZM54.5865 17.8377C54.5865 18.0484 54.5729 18.2387 54.5457 18.4086H50.2532C50.2872 18.8573 50.4537 19.2175 50.7528 19.4894C51.0519 19.7613 51.4189 19.8973 51.854 19.8973C52.4793 19.8973 52.9211 19.6356 53.1794 19.1122H54.4336C54.2636 19.6288 53.9543 20.0536 53.5057 20.3867C53.0639 20.713 52.5133 20.8761 51.854 20.8761C51.317 20.8761 50.8343 20.7571 50.4061 20.5192C49.9847 20.2745 49.6516 19.9347 49.4069 19.4996C49.169 19.0578 49.05 18.548 49.05 17.9702C49.05 17.3924 49.1656 16.886 49.3967 16.451C49.6346 16.0092 49.9643 15.6693 50.3857 15.4314C50.814 15.1935 51.3034 15.0745 51.854 15.0745C52.3841 15.0745 52.8566 15.1901 53.2712 15.4212C53.6858 15.6523 54.0087 15.9786 54.2398 16.4C54.4709 16.8147 54.5865 17.2939 54.5865 17.8377ZM53.3732 17.4706C53.3664 17.0424 53.2134 16.6991 52.9143 16.4408C52.6153 16.1825 52.2448 16.0534 51.803 16.0534C51.4019 16.0534 51.0587 16.1825 50.7732 16.4408C50.4877 16.6923 50.3177 17.0356 50.2634 17.4706H53.3732ZM56.8927 15.982C57.0627 15.6965 57.287 15.4756 57.5657 15.3192C57.8512 15.1561 58.1876 15.0745 58.5751 15.0745V16.2777H58.2794C57.824 16.2777 57.4773 16.3932 57.2394 16.6243C57.0083 16.8554 56.8927 17.2565 56.8927 17.8275V20.7843H55.7304V15.1663H56.8927V15.982ZM61.6827 20.8761C61.2409 20.8761 60.8433 20.7979 60.4898 20.6416C60.1431 20.4784 59.8678 20.2609 59.6639 19.989C59.46 19.7103 59.3512 19.4011 59.3376 19.0612H60.5408C60.5612 19.2991 60.6733 19.4996 60.8772 19.6628C61.088 19.8191 61.3497 19.8973 61.6623 19.8973C61.9886 19.8973 62.2401 19.8361 62.4169 19.7137C62.6004 19.5846 62.6921 19.4215 62.6921 19.2243C62.6921 19.0136 62.5902 18.8573 62.3863 18.7553C62.1891 18.6534 61.8731 18.5412 61.438 18.4188C61.0166 18.3033 60.6733 18.1911 60.4082 18.0824C60.1431 17.9736 59.912 17.8071 59.7149 17.5828C59.5246 17.3584 59.4294 17.0628 59.4294 16.6957C59.4294 16.3966 59.5178 16.1247 59.6945 15.88C59.8712 15.6285 60.1227 15.4314 60.449 15.2886C60.7821 15.1459 61.1627 15.0745 61.591 15.0745C62.2299 15.0745 62.7431 15.2377 63.1306 15.5639C63.5248 15.8834 63.7355 16.3218 63.7627 16.8792H62.6004C62.58 16.6277 62.478 16.4272 62.2945 16.2777C62.111 16.1281 61.8629 16.0534 61.5502 16.0534C61.2443 16.0534 61.0098 16.1111 60.8467 16.2267C60.6835 16.3422 60.602 16.4952 60.602 16.6855C60.602 16.8351 60.6563 16.9608 60.7651 17.0628C60.8738 17.1647 61.0064 17.2463 61.1627 17.3075C61.3191 17.3618 61.5502 17.4332 61.8561 17.5216C62.2639 17.6303 62.597 17.7425 62.8553 17.8581C63.1204 17.9668 63.3481 18.13 63.5384 18.3475C63.7287 18.565 63.8273 18.8539 63.8341 19.2141C63.8341 19.5336 63.7457 19.8191 63.569 20.0706C63.3923 20.3221 63.1408 20.5192 62.8145 20.662C62.495 20.8047 62.1178 20.8761 61.6827 20.8761Z" fill="black"/>
<path d="M7.91464 19.4555C7.91464 18.4677 8.71537 17.667 9.70312 17.667C10.6909 17.667 11.4916 18.4677 11.4916 19.4555C11.4916 20.4432 10.6909 21.244 9.70312 21.244C8.71537 21.244 7.91464 20.4432 7.91464 19.4555ZM9.70683 19.1202L18.2598 19.2147L18.2524 19.8854L9.69942 19.7908L9.70683 19.1202Z" fill="black"/>
<path d="M15.2939 15.526C15.2939 14.5382 16.0946 13.7375 17.0824 13.7375C18.0701 13.7375 18.8708 14.5382 18.8708 15.526C18.8708 16.5137 18.0701 17.3145 17.0824 17.3145C16.0946 17.3145 15.2939 16.5137 15.2939 15.526ZM8.53313 15.0961L17.0861 15.1907L17.0787 15.8613L8.52571 15.7667L8.53313 15.0961Z" fill="black"/>
</svg>
